# xmcd
#
# Track frame offsets:
#	150
#	17016
#	35188
#	51395
#	69886
#	87317
#	123270
#
# Disc length: 3174 seconds
#
# Revision: 1
# Processed by: cddbd v1.5.2PL0 Copyright (c) Steve Scherf et al.
# Submitted via: audiograbber 1.83.01
#
DISCID=590c6407
DTITLE=Da F.U.N.K. - I Wanna be
DYEAR=2005
DGENRE=R&B
TTITLE0=I Wanna be (Original Radio Edit)
TTITLE1=I Wanna be (Regga Jam Remix)
TTITLE2=I Wanna be (Club Remix)
TTITLE3=I Wanna be (Extended Version)
TTITLE4=I Wanna be (Da F.U.N.K. Remix)
TTITLE5=I Wanna be (Big Zee Remix)
TTITLE6=Daten-CD
EXTD=
EXTT0=
EXTT1=
EXTT2=
EXTT3=
EXTT4=
EXTT5=
EXTT6=
PLAYORDER=
